<?xml version="1.0" standalone="no"?>
<!DOCTYPE svg PUBLIC "-//W3C//DTD SVG 20010904//EN"
 "http://www.w3.org/TR/2001/REC-SVG-20010904/DTD/svg10.dtd">
<svg version="1.0" xmlns="http://www.w3.org/2000/svg"
 width="500.000000pt" height="500.000000pt" viewBox="0 0 500.000000 500.000000"
 preserveAspectRatio="xMidYMid meet">

<g transform="translate(0.000000,500.000000) scale(0.100000,-0.100000)"
fill="#000000" stroke="none">
<path d="M2428 3267 c-31 -23 -184 -129 -340 -235 -156 -106 -291 -199 -300
-206 -17 -12 -18 -40 -18 -324 l0 -311 143 -97 c162 -111 290 -199 462 -319
l119 -83 136 93 c74 52 240 165 367 252 l233 158 -1 310 0 310 -122 82 c-67
45 -192 130 -277 188 -278 191 -329 225 -337 224 -4 0 -34 -19 -65 -42z m299
-164 c111 -76 261 -178 333 -227 l130 -90 -2 -284 -3 -284 -135 -93 c-276
-191 -550 -375 -556 -375 -5 0 -163 106 -324 219 -71 49 -314 216 -342 234
-17 11 -18 36 -18 302 l1 290 177 120 c97 66 251 170 341 232 123 83 168 110
180 103 9 -5 107 -71 218 -147z"/>
<path d="M2335 2991 c-88 -60 -213 -146 -277 -191 l-118 -81 0 -217 1 -217
140 -95 c77 -52 199 -136 272 -187 73 -51 137 -92 143 -93 7 0 52 28 100 63
80 57 160 112 381 263 l72 49 3 214 3 214 -40 32 c-22 17 -110 79 -195 137
-85 57 -192 130 -237 161 -45 31 -83 57 -85 57 -2 0 -75 -49 -163 -109z m428
-124 l247 -169 0 -194 0 -193 -62 -44 c-276 -192 -450 -308 -461 -304 -7 2
-46 29 -87 59 -41 29 -153 107 -247 171 l-173 118 0 193 0 193 175 119 c97 65
212 145 256 176 45 32 86 55 93 51 6 -3 122 -82 259 -176z"/>
<path d="M2444 2854 c-27 -20 -103 -73 -169 -118 -66 -45 -120 -86 -120 -91 0
-6 53 -46 118 -89 l117 -80 0 -87 c0 -65 3 -88 14 -92 8 -3 17 -3 20 0 3 4 6
52 6 107 l0 101 -106 69 c-83 55 -102 72 -92 81 7 7 69 50 138 97 l126 86 134
-93 c74 -51 135 -95 135 -99 0 -3 -45 -37 -100 -74 l-100 -68 -3 -99 c-2 -70
1 -101 10 -106 23 -14 28 2 28 90 l0 87 120 80 c66 43 120 84 120 90 0 6 -42
39 -92 73 -51 33 -122 81 -158 107 -99 69 -91 67 -146 28z"/>
<path d="M2450 2678 c-26 -29 -25 -59 3 -86 29 -27 57 -28 85 -2 27 26 28 64
2 90 -26 26 -64 25 -90 -2z"/>
<path d="M2096 2451 c-27 -29 -13 -51 67 -105 40 -26 131 -89 203 -138 l131
-90 76 54 c42 29 132 91 201 138 69 46 128 91 131 99 3 7 3 22 0 31 -13 42
-79 28 -73 -15 3 -21 -18 -39 -162 -136 -91 -62 -169 -112 -175 -112 -5 0 -64
37 -130 83 -66 46 -139 97 -162 113 -29 19 -43 36 -43 51 0 24 -17 46 -35 46
-7 0 -20 -9 -29 -19z"/>
</g>
</svg>
